<svg id="svg" version="1.1" xmlns="http://www.w3.org/2000/svg" xmlns:xlink="http://www.w3.org/1999/xlink" width="{{ .width }}" height="{{ .height }}" viewBox="0, 0, 400,400">
  <g id="svgg">
    <path id="path0" d="M27.922 0.284 C 27.184 0.397,26.913 0.630,27.065 1.024 C 27.186 1.341,27.076 1.600,26.819 1.600 C 26.563 1.600,26.456 1.432,26.583 1.228 C 27.099 0.392,25.900 0.392,25.176 1.228 C 24.558 1.940,24.016 2.115,22.597 2.062 C 21.121 2.006,20.801 2.119,20.806 2.697 C 20.811 3.297,20.869 3.312,21.200 2.800 C 21.433 2.439,21.590 2.390,21.594 2.676 C 21.602 3.333,20.911 3.703,20.604 3.207 C 20.165 2.496,17.600 4.080,17.600 5.062 C 17.600 5.265,17.105 5.424,16.500 5.416 C 15.670 5.404,15.429 5.572,15.518 6.100 C 15.604 6.614,15.365 6.800,14.618 6.800 C 14.058 6.800,13.600 6.980,13.600 7.200 C 13.600 7.420,13.330 7.600,13.000 7.600 C 12.290 7.600,12.206 8.233,12.862 8.638 C 13.148 8.815,13.215 8.748,13.038 8.462 C 12.881 8.208,12.958 8.000,13.210 8.000 C 13.461 8.000,13.602 8.193,13.523 8.430 C 13.444 8.666,13.268 8.801,13.132 8.730 C 12.996 8.659,12.504 8.944,12.040 9.364 C 11.575 9.785,11.087 10.020,10.955 9.888 C 10.627 9.560,9.635 10.519,9.881 10.925 C 9.990 11.104,9.746 11.618,9.339 12.067 C 8.933 12.516,8.659 12.996,8.730 13.132 C 8.801 13.268,8.666 13.444,8.430 13.523 C 8.193 13.602,8.000 13.461,8.000 13.210 C 8.000 12.958,8.208 12.881,8.462 13.038 C 8.748 13.215,8.815 13.148,8.638 12.862 C 8.233 12.206,7.600 12.290,7.600 13.000 C 7.600 13.330,7.420 13.600,7.200 13.600 C 6.980 13.600,6.800 14.058,6.800 14.618 C 6.800 15.365,6.614 15.604,6.100 15.518 C 5.572 15.429,5.404 15.670,5.416 16.500 C 5.424 17.105,5.265 17.600,5.062 17.600 C 4.080 17.600,2.496 20.165,3.207 20.604 C 3.703 20.911,3.333 21.602,2.676 21.594 C 2.390 21.590,2.439 21.433,2.800 21.200 C 3.309 20.871,3.290 20.811,2.677 20.806 C 2.052 20.801,1.974 21.091,2.094 22.972 C 2.170 24.166,2.133 25.082,2.012 25.007 C 1.582 24.742,0.324 25.954,0.588 26.380 C 0.735 26.618,1.023 26.709,1.228 26.583 C 1.432 26.456,1.600 26.563,1.600 26.819 C 1.600 27.076,1.349 27.189,1.041 27.071 C 0.311 26.791,-0.266 30.198,0.380 30.976 C 0.686 31.344,0.694 31.827,0.409 32.577 C -0.187 34.145,-0.094 35.878,0.600 36.145 C 1.377 36.443,1.377 37.200,0.600 37.200 C 0.068 37.200,0.000 55.556,0.000 200.000 C 0.000 344.444,0.068 362.800,0.600 362.800 C 1.376 362.800,1.376 363.447,0.600 363.745 C -0.065 364.000,-0.295 368.400,0.356 368.400 C 0.552 368.400,0.652 369.025,0.578 369.790 C 0.504 370.554,0.614 371.285,0.822 371.413 C 1.030 371.542,1.200 371.827,1.200 372.047 C 1.200 372.267,1.020 372.336,0.800 372.200 C 0.580 372.064,0.400 372.233,0.400 372.576 C 0.400 372.919,0.625 373.203,0.900 373.206 C 1.239 373.210,1.210 373.332,0.812 373.584 C -0.134 374.183,0.747 374.624,1.718 374.038 C 2.437 373.604,2.507 373.604,2.100 374.033 C 1.540 374.624,1.418 375.360,1.933 375.041 C 2.117 374.928,2.267 375.080,2.267 375.379 C 2.267 375.679,2.019 375.829,1.717 375.713 C 1.141 375.492,1.144 376.411,1.720 376.836 C 1.896 376.966,2.068 377.441,2.102 377.892 C 2.139 378.389,2.370 378.633,2.686 378.512 C 3.034 378.378,3.126 378.526,2.962 378.955 C 2.826 379.310,2.914 379.600,3.157 379.600 C 3.401 379.600,3.600 379.791,3.600 380.024 C 3.600 380.257,3.375 380.320,3.100 380.165 C 2.784 379.987,2.802 380.088,3.150 380.441 C 3.578 380.876,3.741 380.888,3.884 380.498 C 4.213 379.599,4.810 380.420,4.558 381.425 C 4.403 382.041,4.485 382.400,4.780 382.400 C 5.037 382.400,5.156 382.547,5.045 382.727 C 4.934 382.907,5.283 383.529,5.821 384.110 C 6.360 384.690,6.800 385.353,6.800 385.583 C 6.800 385.812,6.980 386.000,7.200 386.000 C 7.420 386.000,7.600 386.360,7.600 386.800 C 7.600 387.240,7.791 387.600,8.024 387.600 C 8.257 387.600,8.333 387.375,8.194 387.100 C 8.055 386.825,8.224 386.949,8.570 387.376 C 8.917 387.803,9.425 388.315,9.700 388.514 C 10.052 388.768,9.998 388.811,9.520 388.658 C 9.044 388.506,8.907 388.614,9.063 389.020 C 9.294 389.622,9.645 389.733,11.000 389.634 C 11.754 389.579,11.759 389.608,11.096 390.135 C 10.472 390.631,10.460 390.752,10.996 391.196 C 11.485 391.602,11.605 391.593,11.627 391.149 C 11.642 390.847,11.849 391.005,12.088 391.500 C 12.327 391.995,12.675 392.400,12.861 392.400 C 13.353 392.400,13.277 391.843,12.700 391.221 C 12.298 390.788,12.303 390.741,12.725 390.980 C 13.013 391.144,13.414 391.710,13.615 392.239 C 13.896 392.979,14.281 393.203,15.290 393.212 C 16.374 393.222,16.479 393.295,15.900 393.632 C 14.914 394.206,15.030 394.871,16.100 394.784 C 17.476 394.673,18.160 394.774,17.886 395.048 C 17.626 395.307,18.065 395.808,19.402 396.781 C 20.035 397.242,20.097 397.246,19.700 396.801 C 19.040 396.061,19.063 395.573,19.746 395.835 C 20.046 395.950,20.492 396.484,20.737 397.022 C 21.038 397.683,21.510 398.000,22.191 398.000 C 22.746 398.000,23.200 398.170,23.200 398.377 C 23.200 398.584,23.558 398.685,23.995 398.601 C 24.433 398.517,25.061 398.718,25.392 399.049 C 25.723 399.380,26.194 399.527,26.440 399.376 C 26.762 399.176,26.754 399.018,26.409 398.805 C 26.093 398.610,26.226 398.434,26.806 398.283 C 27.520 398.096,27.642 398.195,27.477 398.827 C 27.366 399.252,27.438 399.600,27.637 399.600 C 27.837 399.600,28.000 399.420,28.000 399.200 C 28.000 398.980,28.180 398.800,28.400 398.800 C 28.620 398.800,28.755 399.025,28.700 399.300 C 28.644 399.581,29.081 399.855,29.700 399.927 C 30.305 399.996,30.800 399.872,30.800 399.650 C 30.800 399.428,31.205 399.336,31.700 399.447 C 34.643 400.105,35.708 400.108,36.071 399.459 C 36.532 398.636,37.200 398.601,37.200 399.400 C 37.200 399.932,55.556 400.000,200.000 400.000 C 344.444 400.000,362.800 399.932,362.800 399.400 C 362.800 398.624,363.447 398.624,363.745 399.400 C 364.006 400.082,368.400 400.287,368.400 399.617 C 368.400 399.406,369.142 399.311,370.049 399.405 C 371.101 399.515,372.002 399.364,372.538 398.988 C 373.531 398.293,374.000 398.240,374.000 398.824 C 374.000 399.057,373.856 399.158,373.681 399.050 C 373.505 398.942,373.100 399.018,372.781 399.220 C 372.318 399.513,372.368 399.589,373.025 399.594 C 373.478 399.597,374.205 399.268,374.640 398.863 C 375.075 398.458,376.048 398.109,376.803 398.088 C 377.558 398.066,378.361 397.795,378.588 397.486 C 378.814 397.176,379.335 396.972,379.745 397.033 C 380.203 397.100,380.568 396.845,380.692 396.371 C 380.803 395.947,381.153 395.600,381.470 395.600 C 381.788 395.600,381.955 395.450,381.841 395.267 C 381.728 395.083,381.897 394.933,382.218 394.933 C 382.538 394.933,382.800 395.096,382.800 395.295 C 382.800 395.494,383.083 395.374,383.429 395.029 C 383.774 394.683,384.269 394.397,384.529 394.394 C 384.809 394.390,384.762 394.237,384.411 394.015 C 383.790 393.623,383.735 393.662,385.825 393.003 C 386.169 392.894,386.339 392.624,386.202 392.403 C 386.065 392.181,386.135 392.000,386.358 392.000 C 386.581 392.000,387.222 391.542,387.781 390.982 C 388.341 390.423,389.114 390.018,389.499 390.082 C 389.977 390.163,390.163 389.977,390.082 389.499 C 390.018 389.114,390.423 388.341,390.982 387.781 C 391.542 387.222,392.000 386.581,392.000 386.358 C 392.000 386.135,392.181 386.065,392.403 386.202 C 392.624 386.339,392.894 386.169,393.003 385.825 C 393.662 383.735,393.623 383.790,394.015 384.411 C 394.237 384.762,394.390 384.809,394.394 384.529 C 394.397 384.269,394.683 383.774,395.029 383.429 C 395.374 383.083,395.494 382.800,395.295 382.800 C 395.096 382.800,394.933 382.538,394.933 382.218 C 394.933 381.897,395.083 381.728,395.267 381.841 C 395.450 381.955,395.600 381.788,395.600 381.470 C 395.600 381.153,395.947 380.803,396.371 380.692 C 396.845 380.568,397.100 380.203,397.033 379.745 C 396.972 379.335,397.183 378.809,397.501 378.576 C 397.836 378.331,398.080 377.490,398.080 376.586 C 398.080 375.500,398.313 374.856,398.840 374.487 C 399.258 374.194,399.597 373.560,399.594 373.077 C 399.589 372.388,399.509 372.325,399.220 372.781 C 399.018 373.100,398.942 373.505,399.050 373.681 C 399.158 373.856,399.057 374.000,398.824 374.000 C 398.240 374.000,398.293 373.531,398.988 372.538 C 399.364 372.002,399.515 371.101,399.405 370.049 C 399.311 369.142,399.406 368.400,399.617 368.400 C 400.287 368.400,400.082 364.006,399.400 363.745 C 398.624 363.447,398.624 362.800,399.400 362.800 C 399.932 362.800,400.000 344.444,400.000 200.000 C 400.000 55.556,399.932 37.200,399.400 37.200 C 398.601 37.200,398.636 36.532,399.459 36.071 C 400.108 35.708,400.105 34.643,399.447 31.700 C 399.336 31.205,399.428 30.800,399.650 30.800 C 399.872 30.800,399.996 30.305,399.927 29.700 C 399.855 29.081,399.581 28.644,399.300 28.700 C 399.025 28.755,398.800 28.620,398.800 28.400 C 398.800 28.180,398.980 28.000,399.200 28.000 C 399.420 28.000,399.600 27.837,399.600 27.637 C 399.600 27.438,399.252 27.366,398.827 27.477 C 398.184 27.645,398.095 27.523,398.297 26.750 C 398.431 26.239,398.614 26.042,398.704 26.313 C 398.795 26.584,399.033 26.703,399.234 26.579 C 399.845 26.202,399.646 25.669,398.794 25.398 C 398.305 25.243,398.104 24.958,398.283 24.671 C 398.731 23.955,398.773 23.200,398.365 23.200 C 398.164 23.200,398.000 22.746,398.000 22.191 C 398.000 21.510,397.683 21.038,397.022 20.737 C 396.484 20.492,395.950 20.046,395.835 19.746 C 395.573 19.063,396.061 19.040,396.801 19.700 C 397.246 20.097,397.242 20.035,396.781 19.402 C 395.808 18.065,395.307 17.626,395.048 17.886 C 394.774 18.160,394.673 17.476,394.784 16.100 C 394.871 15.030,394.206 14.914,393.632 15.900 C 393.295 16.479,393.222 16.374,393.212 15.290 C 393.203 14.281,392.979 13.896,392.239 13.615 C 391.710 13.414,391.144 13.013,390.980 12.725 C 390.741 12.303,390.788 12.298,391.221 12.700 C 391.843 13.277,392.400 13.353,392.400 12.861 C 392.400 12.675,391.995 12.327,391.500 12.088 C 391.005 11.849,390.847 11.642,391.149 11.627 C 391.593 11.605,391.602 11.485,391.196 10.996 C 390.752 10.460,390.631 10.472,390.135 11.096 C 389.608 11.759,389.579 11.754,389.634 11.000 C 389.733 9.645,389.622 9.294,389.020 9.063 C 388.614 8.907,388.506 9.044,388.658 9.520 C 388.811 9.998,388.768 10.052,388.514 9.700 C 388.315 9.425,387.803 8.917,387.376 8.570 C 386.949 8.224,386.825 8.055,387.100 8.194 C 387.375 8.333,387.600 8.257,387.600 8.024 C 387.600 7.791,387.240 7.600,386.800 7.600 C 386.360 7.600,386.000 7.420,386.000 7.200 C 386.000 6.980,385.812 6.800,385.583 6.800 C 385.353 6.800,384.690 6.360,384.110 5.821 C 383.529 5.283,382.907 4.934,382.727 5.045 C 382.547 5.156,382.400 5.037,382.400 4.780 C 382.400 4.485,382.041 4.403,381.425 4.558 C 380.420 4.810,379.599 4.213,380.498 3.884 C 380.888 3.741,380.876 3.578,380.441 3.150 C 380.088 2.802,379.987 2.784,380.165 3.100 C 380.320 3.375,380.257 3.600,380.024 3.600 C 379.791 3.600,379.600 3.401,379.600 3.157 C 379.600 2.914,379.310 2.826,378.955 2.962 C 378.526 3.126,378.378 3.034,378.512 2.686 C 378.633 2.370,378.389 2.139,377.892 2.102 C 377.441 2.068,376.966 1.896,376.836 1.720 C 376.349 1.060,375.497 1.155,375.760 1.840 C 375.977 2.405,375.920 2.432,375.409 2.008 C 374.916 1.598,374.673 1.607,374.136 2.051 C 373.529 2.552,373.519 2.523,374.021 1.718 C 374.323 1.233,374.432 0.698,374.263 0.530 C 374.094 0.361,373.789 0.488,373.584 0.812 C 373.332 1.210,373.210 1.239,373.206 0.900 C 373.203 0.625,372.919 0.400,372.576 0.400 C 372.233 0.400,372.064 0.580,372.200 0.800 C 372.336 1.020,372.267 1.200,372.047 1.200 C 371.827 1.200,371.542 1.030,371.413 0.822 C 371.285 0.614,370.554 0.504,369.790 0.578 C 369.025 0.652,368.400 0.552,368.400 0.356 C 368.400 -0.295,364.000 -0.065,363.745 0.600 C 363.447 1.376,362.800 1.376,362.800 0.600 C 362.800 0.068,344.444 0.000,200.000 0.000 C 55.556 0.000,37.200 0.068,37.200 0.600 C 37.200 1.377,36.443 1.377,36.145 0.600 C 35.877 -0.097,34.143 -0.187,32.561 0.415 C 31.807 0.701,31.341 0.701,31.055 0.415 C 30.641 0.001,29.963 -0.027,27.922 0.284 M94.600 44.658 C 96.048 44.623,97.210 44.798,97.529 45.100 C 97.819 45.375,98.584 45.600,99.229 45.600 C 99.873 45.600,100.400 45.780,100.400 46.000 C 100.400 46.220,100.574 46.400,100.787 46.400 C 101.001 46.400,101.071 46.130,100.945 45.800 C 100.818 45.470,100.914 45.200,101.157 45.200 C 101.401 45.200,101.600 45.391,101.600 45.624 C 101.600 45.857,101.780 45.936,102.000 45.800 C 102.220 45.664,102.400 45.743,102.400 45.976 C 102.400 46.209,102.670 46.400,103.000 46.400 C 103.330 46.400,103.600 46.580,103.600 46.800 C 103.600 47.020,104.146 47.200,104.814 47.200 C 105.482 47.200,106.472 47.491,107.014 47.846 C 107.556 48.201,108.000 48.354,108.000 48.185 C 108.000 48.016,108.360 48.293,108.800 48.800 C 109.240 49.307,109.600 49.495,109.600 49.217 C 109.600 48.939,109.954 49.136,110.387 49.656 C 110.819 50.175,111.179 50.443,111.187 50.251 C 111.194 50.059,111.505 50.149,111.877 50.451 C 112.337 50.824,112.457 50.840,112.253 50.500 C 111.516 49.273,112.737 50.170,114.002 51.785 C 115.447 53.630,116.352 54.204,115.600 52.800 C 115.310 52.258,115.305 52.000,115.586 52.000 C 115.814 52.000,116.000 52.270,116.000 52.600 C 116.000 52.930,116.270 53.200,116.600 53.200 C 116.930 53.200,117.203 53.425,117.206 53.700 C 117.211 54.074,117.297 54.066,117.550 53.666 C 117.824 53.235,117.934 53.252,118.127 53.754 C 118.258 54.095,118.192 54.482,117.979 54.613 C 117.754 54.752,117.844 55.101,118.194 55.451 C 118.524 55.781,118.973 55.940,119.192 55.805 C 119.423 55.662,119.490 55.821,119.353 56.179 C 119.138 56.738,119.577 56.993,120.500 56.847 C 120.665 56.821,120.779 56.935,120.753 57.100 C 120.609 58.008,120.863 58.461,121.400 58.255 C 121.730 58.129,122.000 58.207,122.000 58.430 C 122.000 58.653,122.296 58.782,122.659 58.718 C 123.021 58.653,123.394 58.870,123.489 59.200 C 123.642 59.733,123.614 59.733,123.237 59.200 C 122.912 58.740,122.811 58.726,122.806 59.137 C 122.803 59.433,123.139 59.764,123.554 59.872 C 124.032 59.997,124.241 60.322,124.126 60.762 C 124.026 61.144,124.272 61.705,124.672 62.009 C 125.295 62.482,125.328 62.481,124.900 62.001 C 124.198 61.214,124.275 60.598,125.000 61.200 C 125.330 61.474,125.600 62.047,125.600 62.473 C 125.600 62.899,125.780 63.136,126.000 63.000 C 126.220 62.864,126.400 62.839,126.400 62.944 C 126.400 63.049,126.521 63.449,126.668 63.833 C 126.867 64.352,126.797 64.446,126.395 64.197 C 126.098 64.013,126.383 64.560,127.027 65.411 C 127.672 66.263,127.947 66.806,127.638 66.618 C 127.313 66.421,127.158 66.429,127.271 66.638 C 127.378 66.837,127.774 67.675,128.152 68.500 C 128.529 69.325,128.930 70.000,129.042 70.000 C 129.155 70.000,129.148 69.839,129.026 69.642 C 128.785 69.251,129.983 68.650,130.324 68.991 C 130.439 69.106,130.344 69.200,130.113 69.200 C 129.287 69.200,129.243 70.760,130.062 71.020 C 130.649 71.206,130.735 71.396,130.411 71.787 C 130.093 72.170,130.135 72.366,130.567 72.532 C 130.939 72.675,131.090 73.116,130.977 73.736 C 130.865 74.356,131.015 74.797,131.388 74.940 C 131.814 75.104,131.931 75.620,131.812 76.817 C 131.677 78.171,131.757 78.425,132.257 78.233 C 132.640 78.086,132.799 78.185,132.683 78.500 C 132.583 78.775,132.298 78.955,132.050 78.900 C 131.493 78.776,131.454 79.463,132.000 79.800 C 132.220 79.936,132.400 80.407,132.400 80.847 C 132.400 81.287,132.580 81.536,132.800 81.400 C 133.020 81.264,133.200 81.343,133.200 81.576 C 133.200 81.809,133.020 82.000,132.800 82.000 C 132.254 82.000,132.291 84.285,132.843 84.626 C 133.161 84.823,133.153 84.982,132.813 85.192 C 132.466 85.407,132.506 85.649,132.967 86.110 C 133.436 86.579,133.468 86.786,133.096 86.937 C 132.726 87.088,132.752 87.247,133.200 87.563 C 133.728 87.937,133.519 88.163,132.740 88.061 C 132.597 88.042,132.480 89.101,132.480 90.413 C 132.480 91.726,132.648 92.800,132.854 92.800 C 133.060 92.800,133.023 93.183,132.771 93.654 C 132.439 94.275,132.230 94.372,132.005 94.008 C 131.828 93.722,131.685 94.250,131.672 95.239 C 131.655 96.447,131.759 96.793,132.018 96.385 C 132.245 96.025,132.390 95.984,132.394 96.276 C 132.397 96.538,132.217 96.866,131.993 97.004 C 131.770 97.142,131.714 97.468,131.870 97.728 C 132.083 98.083,132.007 98.081,131.562 97.722 C 131.071 97.325,130.956 97.423,130.883 98.300 C 130.835 98.880,130.572 99.517,130.298 99.715 C 129.947 99.969,129.997 100.013,130.467 99.863 C 130.845 99.743,131.232 99.907,131.361 100.241 C 131.514 100.642,131.364 100.795,130.894 100.716 C 130.033 100.572,129.676 102.348,130.465 102.849 C 131.010 103.194,130.999 103.200,129.503 103.350 C 128.912 103.409,127.525 106.212,127.452 107.496 C 127.423 107.993,127.130 108.414,126.800 108.431 C 126.390 108.453,126.358 108.527,126.700 108.665 C 126.975 108.776,127.200 109.042,127.200 109.257 C 127.200 109.472,127.055 109.557,126.877 109.448 C 126.699 109.338,126.224 109.687,125.821 110.224 C 125.418 110.761,124.843 111.200,124.544 111.200 C 124.245 111.200,124.000 111.391,124.000 111.624 C 124.000 111.857,124.180 111.936,124.400 111.800 C 124.620 111.664,124.800 111.822,124.800 112.151 C 124.800 112.480,124.075 113.156,123.188 113.655 C 122.301 114.153,121.660 114.780,121.763 115.047 C 121.913 115.439,120.943 116.172,120.486 116.012 C 120.145 115.892,119.198 117.247,119.187 117.871 C 119.171 118.820,118.263 120.002,117.556 119.994 C 117.108 119.989,117.116 119.914,117.595 119.612 C 118.056 119.320,117.977 119.251,117.243 119.307 C 116.601 119.355,116.172 119.736,115.909 120.489 C 115.696 121.100,115.323 121.600,115.081 121.600 C 114.781 121.600,114.794 121.446,115.120 121.120 C 115.384 120.856,115.600 120.468,115.600 120.259 C 115.600 120.049,115.240 120.293,114.800 120.800 C 113.927 121.807,113.726 122.617,114.462 122.162 C 114.755 121.981,114.815 122.053,114.626 122.358 C 114.404 122.717,114.191 122.724,113.785 122.388 C 113.381 122.053,113.057 122.055,112.521 122.399 C 111.866 122.818,111.864 122.840,112.500 122.643 C 113.358 122.376,113.394 122.663,112.600 123.457 C 112.270 123.787,112.000 123.881,112.000 123.666 C 112.000 123.430,111.619 123.455,111.034 123.731 C 110.503 123.982,110.141 124.305,110.230 124.448 C 110.319 124.592,110.168 124.702,109.896 124.692 C 108.608 124.645,107.975 124.835,108.200 125.200 C 108.344 125.433,107.937 125.600,107.224 125.600 C 106.551 125.600,106.000 125.744,106.000 125.920 C 106.000 126.406,103.133 127.365,102.000 127.259 C 101.205 127.184,101.123 127.249,101.600 127.576 C 102.091 127.913,102.032 127.989,101.276 127.994 C 100.645 127.998,100.448 128.158,100.653 128.500 C 100.880 128.878,100.798 128.874,100.316 128.483 C 99.794 128.061,99.640 128.061,99.470 128.483 C 99.339 128.812,99.252 128.745,99.232 128.300 C 99.214 127.915,98.924 127.600,98.586 127.600 C 98.248 127.600,97.490 127.915,96.901 128.300 C 96.313 128.685,95.968 128.777,96.136 128.505 C 96.345 128.166,96.245 128.085,95.821 128.247 C 95.479 128.378,95.200 128.627,95.200 128.800 C 95.200 128.973,94.939 129.214,94.620 129.337 C 94.273 129.470,94.114 129.367,94.224 129.080 C 94.353 128.742,93.631 128.573,91.786 128.510 C 89.923 128.446,89.246 128.551,89.444 128.872 C 89.627 129.167,89.542 129.212,89.199 128.999 C 88.910 128.821,88.089 128.697,87.375 128.724 C 86.566 128.754,85.990 128.551,85.850 128.186 C 85.569 127.454,84.445 127.418,84.170 128.133 C 84.058 128.427,83.720 128.667,83.421 128.667 C 83.121 128.667,82.968 128.427,83.081 128.133 C 83.383 127.346,82.507 127.485,82.032 128.300 C 81.643 128.968,81.388 128.542,81.553 127.500 C 81.579 127.335,81.324 127.200,80.986 127.200 C 80.490 127.200,80.454 127.373,80.797 128.100 L 81.223 129.000 80.563 128.100 C 80.050 127.401,79.506 127.200,78.128 127.200 C 77.018 127.200,76.448 127.046,76.606 126.790 C 76.745 126.565,76.711 126.406,76.530 126.437 C 75.820 126.561,75.079 126.387,75.314 126.152 C 75.760 125.706,74.481 124.800,73.405 124.800 C 72.805 124.800,72.459 124.628,72.600 124.400 C 72.736 124.180,72.567 124.000,72.224 124.000 C 71.881 124.000,71.600 123.820,71.600 123.600 C 71.600 123.380,71.392 123.200,71.138 123.200 C 70.876 123.200,70.989 123.546,71.400 124.000 C 71.811 124.454,71.924 124.800,71.662 124.800 C 71.408 124.800,71.200 124.620,71.200 124.400 C 71.200 124.180,70.919 124.000,70.576 124.000 C 70.233 124.000,70.056 123.832,70.183 123.628 C 70.309 123.423,70.243 123.150,70.034 123.021 C 69.826 122.892,69.540 122.973,69.400 123.200 C 68.975 123.888,68.349 123.190,68.622 122.332 C 68.842 121.638,68.771 121.587,68.093 121.950 C 67.503 122.266,67.124 122.218,66.555 121.755 C 66.140 121.417,66.070 121.270,66.400 121.429 C 66.730 121.588,66.595 121.324,66.100 120.843 C 65.605 120.362,65.200 119.796,65.200 119.584 C 65.200 119.373,64.908 119.200,64.551 119.200 C 63.993 119.200,63.979 119.293,64.451 119.864 C 64.952 120.470,64.923 120.481,64.126 119.984 C 63.645 119.685,63.341 119.296,63.449 119.120 C 63.628 118.830,63.045 118.639,62.314 118.748 C 62.157 118.771,62.133 118.518,62.261 118.185 C 62.440 117.718,62.620 117.685,63.047 118.039 C 63.450 118.373,63.600 118.376,63.600 118.049 C 63.600 117.619,63.101 117.448,62.164 117.555 C 61.925 117.583,61.402 117.244,61.002 116.803 C 60.515 116.264,60.444 116.000,60.787 116.000 C 61.186 116.000,61.194 115.874,60.820 115.424 C 60.557 115.107,60.086 114.946,59.774 115.065 C 59.235 115.272,58.834 114.717,58.659 113.518 C 58.464 112.196,56.728 110.369,55.912 110.628 C 55.294 110.824,55.181 110.756,55.439 110.343 C 56.008 109.430,55.956 108.842,55.327 109.083 C 54.843 109.269,54.832 109.374,55.266 109.650 C 55.675 109.909,55.636 109.989,55.100 109.994 C 54.665 109.998,54.400 109.698,54.400 109.200 C 54.400 108.760,54.593 108.400,54.829 108.400 C 55.064 108.400,54.974 108.117,54.629 107.771 C 54.283 107.426,54.000 106.886,54.000 106.571 C 54.000 106.257,53.685 105.986,53.300 105.968 C 52.882 105.950,52.801 105.856,53.100 105.735 C 53.375 105.624,53.597 105.233,53.594 104.867 C 53.589 104.290,53.535 104.281,53.200 104.800 C 52.885 105.288,52.811 105.236,52.806 104.524 C 52.803 104.042,52.620 103.536,52.400 103.400 C 52.180 103.264,52.000 102.793,52.000 102.353 C 52.000 101.913,51.843 101.650,51.650 101.769 C 51.458 101.888,51.300 101.518,51.300 100.947 C 51.300 100.376,51.071 99.768,50.792 99.595 C 50.512 99.422,50.398 98.983,50.537 98.620 C 50.677 98.256,50.632 98.057,50.437 98.177 C 50.243 98.297,49.977 98.117,49.846 97.777 C 49.711 97.423,49.778 97.263,50.005 97.403 C 50.222 97.537,50.400 97.356,50.400 97.000 C 50.400 96.589,50.218 96.462,49.900 96.653 C 49.581 96.845,49.605 96.701,49.968 96.254 C 50.445 95.667,50.447 95.574,49.980 95.677 C 49.597 95.762,49.438 95.429,49.465 94.600 C 49.487 93.940,49.313 93.279,49.078 93.130 C 48.783 92.944,48.803 92.679,49.142 92.269 C 49.527 91.806,49.528 91.643,49.146 91.515 C 48.374 91.258,48.422 83.545,49.200 82.913 C 49.618 82.573,49.648 82.422,49.300 82.413 C 49.017 82.406,48.812 81.922,48.828 81.300 C 48.854 80.305,48.892 80.276,49.236 81.000 C 49.611 81.790,49.571 81.347,48.964 78.000 C 48.831 77.264,48.884 77.153,49.165 77.581 C 49.375 77.900,49.441 78.333,49.312 78.543 C 49.182 78.752,49.276 78.800,49.521 78.649 C 49.765 78.498,49.852 78.081,49.715 77.722 C 49.565 77.331,49.627 77.170,49.870 77.320 C 50.129 77.480,50.254 76.785,50.214 75.408 C 50.179 74.219,50.298 73.337,50.478 73.448 C 51.150 73.864,52.088 72.378,51.911 71.178 C 51.809 70.481,51.956 69.803,52.264 69.547 C 52.554 69.306,52.669 68.905,52.519 68.655 C 52.348 68.370,52.476 68.385,52.859 68.695 C 53.383 69.120,53.461 69.024,53.402 68.028 C 53.337 66.942,54.407 65.441,54.970 65.830 C 55.100 65.920,55.039 65.793,54.835 65.548 C 54.335 64.950,54.735 64.000,55.381 64.248 C 55.665 64.357,56.008 64.156,56.144 63.802 C 56.310 63.369,56.229 63.245,55.895 63.423 C 55.623 63.569,55.940 63.222,56.600 62.653 C 57.706 61.700,57.468 60.340,56.319 61.050 C 56.144 61.158,56.000 60.967,56.000 60.624 C 56.000 59.884,56.662 59.787,56.897 60.492 C 57.027 60.880,57.267 60.877,58.031 60.480 C 58.564 60.202,58.703 60.058,58.339 60.160 C 57.915 60.279,57.711 60.129,57.768 59.740 C 57.870 59.041,58.814 58.361,59.281 58.650 C 59.456 58.758,59.600 58.455,59.600 57.975 C 59.600 57.269,59.708 57.192,60.164 57.570 C 60.597 57.929,60.798 57.926,61.026 57.558 C 61.215 57.253,61.155 57.181,60.862 57.362 C 60.608 57.519,60.400 57.457,60.400 57.224 C 60.400 56.839,60.945 56.637,61.686 56.748 C 61.843 56.771,61.869 56.524,61.744 56.199 C 61.616 55.864,61.795 55.500,62.156 55.361 C 62.508 55.227,62.712 54.981,62.610 54.817 C 62.508 54.652,62.863 54.317,63.398 54.074 C 64.016 53.792,64.459 53.772,64.611 54.018 C 64.922 54.521,66.051 53.412,65.907 52.745 C 65.848 52.471,66.136 52.175,66.547 52.085 C 67.084 51.969,67.207 52.075,66.983 52.462 C 66.811 52.758,67.117 52.595,67.661 52.100 C 68.206 51.605,68.800 51.200,68.982 51.200 C 69.163 51.200,69.542 50.885,69.824 50.500 C 70.105 50.115,70.575 49.792,70.868 49.782 C 71.160 49.772,71.345 49.516,71.277 49.214 C 71.176 48.758,71.263 48.754,71.787 49.189 C 72.330 49.640,72.379 49.611,72.140 48.987 C 71.920 48.415,72.007 48.317,72.551 48.526 C 72.962 48.684,73.143 48.631,72.997 48.395 C 72.748 47.992,73.420 47.863,75.200 47.974 C 76.000 48.023,76.080 47.953,75.600 47.624 C 75.122 47.296,75.223 47.211,76.100 47.206 C 76.808 47.202,77.200 46.986,77.200 46.600 C 77.200 45.754,77.993 45.849,78.032 46.700 C 78.050 47.118,78.144 47.199,78.265 46.900 C 78.376 46.625,78.797 46.400,79.200 46.400 C 79.603 46.400,80.008 46.176,80.099 45.903 C 80.215 45.556,81.102 45.437,83.032 45.511 C 84.992 45.587,85.625 45.500,85.200 45.215 C 84.551 44.779,85.616 44.668,89.259 44.792 C 90.318 44.828,91.244 44.653,91.409 44.385 C 91.595 44.084,91.790 44.059,91.950 44.316 C 92.088 44.536,93.280 44.691,94.600 44.658 M110.308 47.675 C 110.221 47.936,109.936 48.221,109.675 48.308 C 109.382 48.406,109.293 48.223,109.443 47.833 C 109.722 47.106,110.548 46.955,110.308 47.675 M128.600 67.200 C 128.464 67.420,128.543 67.600,128.776 67.600 C 129.009 67.600,129.200 67.883,129.200 68.229 C 129.200 68.799,129.142 68.799,128.574 68.232 C 128.028 67.686,128.073 66.800,128.647 66.800 C 128.757 66.800,128.736 66.980,128.600 67.200 M118.104 118.219 C 117.789 118.561,117.753 118.848,118.007 119.004 C 118.226 119.140,118.517 118.962,118.652 118.608 C 118.983 117.747,118.714 117.557,118.104 118.219 M282.406 144.544 C 282.409 144.795,282.589 144.730,282.806 144.400 C 283.156 143.867,283.244 143.867,283.594 144.400 C 283.881 144.837,283.989 144.858,283.994 144.476 C 283.997 144.188,284.165 144.055,284.366 144.179 C 284.567 144.303,284.823 144.179,284.934 143.902 C 285.046 143.626,285.151 143.749,285.168 144.176 C 285.200 144.945,285.206 144.945,285.801 144.176 C 286.393 143.412,286.398 143.412,286.142 144.200 C 285.929 144.857,285.979 144.910,286.421 144.500 C 287.052 143.915,288.157 143.822,287.810 144.383 C 287.666 144.617,288.632 144.725,290.287 144.659 C 292.274 144.581,293.205 144.719,293.768 145.176 C 294.478 145.753,294.515 145.744,294.261 145.050 C 293.997 144.328,294.027 144.326,295.042 144.991 C 295.623 145.372,295.994 145.514,295.867 145.308 C 295.739 145.102,295.889 144.933,296.200 144.933 C 296.511 144.933,296.663 145.099,296.537 145.301 C 296.411 145.506,296.931 145.616,297.710 145.548 C 298.480 145.482,299.392 145.661,299.735 145.946 C 300.079 146.231,301.008 146.409,301.800 146.341 C 302.744 146.259,303.368 146.420,303.614 146.808 C 303.919 147.292,303.991 147.253,304.006 146.600 C 304.024 145.831,304.041 145.829,304.459 146.548 C 304.810 147.153,304.961 147.191,305.247 146.748 C 305.518 146.327,305.659 146.416,305.856 147.136 C 306.083 147.964,306.311 148.056,307.851 147.933 C 308.987 147.843,309.656 147.969,309.782 148.298 C 309.888 148.574,310.386 148.803,310.887 148.806 C 311.638 148.811,311.694 148.886,311.200 149.230 C 310.752 149.542,311.030 149.613,312.300 149.513 C 313.482 149.420,314.000 149.534,314.000 149.889 C 314.000 150.170,314.191 150.400,314.424 150.400 C 314.657 150.400,314.736 150.220,314.600 150.000 C 314.464 149.780,314.533 149.600,314.753 149.600 C 314.973 149.600,315.266 149.783,315.404 150.007 C 315.542 150.230,315.821 150.311,316.023 150.186 C 316.227 150.060,316.273 150.266,316.126 150.649 C 315.925 151.171,316.019 151.278,316.510 151.090 C 316.973 150.912,317.094 151.012,316.930 151.437 C 316.754 151.897,316.941 151.990,317.744 151.844 C 318.318 151.740,318.908 151.851,319.055 152.089 C 319.227 152.367,319.135 152.407,318.800 152.200 C 318.454 151.986,318.373 152.033,318.562 152.338 C 318.719 152.592,319.107 152.800,319.424 152.800 C 319.741 152.800,320.000 152.999,320.000 153.243 C 320.000 153.486,320.257 153.587,320.571 153.467 C 320.885 153.346,321.357 153.507,321.620 153.824 C 322.282 154.622,322.830 154.546,322.510 153.700 C 322.109 152.642,323.271 153.902,323.894 155.200 L 324.373 156.200 324.218 155.131 C 324.122 154.464,324.277 153.979,324.628 153.845 C 325.069 153.675,325.143 153.929,324.971 155.014 C 324.830 155.902,324.912 156.400,325.199 156.400 C 325.445 156.400,325.536 156.220,325.400 156.000 C 325.264 155.780,325.343 155.600,325.576 155.600 C 325.809 155.600,326.000 155.882,326.000 156.227 C 326.000 156.672,326.232 156.780,326.800 156.600 C 327.259 156.454,327.600 156.528,327.600 156.773 C 327.600 157.008,327.915 157.203,328.300 157.206 C 328.881 157.211,328.901 157.275,328.419 157.580 C 328.100 157.782,327.667 157.841,327.457 157.712 C 327.248 157.582,327.200 157.676,327.351 157.921 C 327.502 158.165,327.890 158.264,328.213 158.140 C 328.536 158.016,328.800 158.124,328.800 158.381 C 328.800 158.637,328.961 158.748,329.157 158.626 C 329.354 158.505,329.627 158.854,329.765 159.403 C 330.051 160.543,330.787 160.749,330.825 159.700 C 330.846 159.124,330.910 159.146,331.186 159.828 C 331.370 160.284,331.989 160.963,332.561 161.337 C 333.132 161.712,333.600 162.228,333.600 162.485 C 333.600 162.741,333.233 162.557,332.784 162.075 C 331.597 160.800,331.384 161.004,332.470 162.378 C 332.981 163.026,333.693 163.566,334.051 163.578 C 334.409 163.590,334.926 163.870,335.200 164.200 C 335.801 164.924,336.565 165.004,336.159 164.300 C 336.001 164.025,336.026 163.940,336.214 164.112 C 336.817 164.660,336.783 165.679,336.169 165.444 C 335.856 165.323,335.600 165.399,335.600 165.613 C 335.600 165.826,336.031 166.000,336.557 166.000 C 337.537 166.000,338.000 166.659,338.000 168.050 C 338.000 168.560,338.231 168.794,338.659 168.718 C 339.021 168.653,339.404 168.850,339.510 169.156 C 339.643 169.537,339.530 169.611,339.152 169.392 C 338.831 169.206,338.738 169.222,338.928 169.431 C 339.109 169.628,339.559 169.792,339.928 169.795 C 340.298 169.798,340.553 170.030,340.496 170.311 C 340.439 170.592,340.663 170.926,340.994 171.053 C 341.325 171.180,341.494 171.448,341.370 171.648 C 341.246 171.849,340.949 171.892,340.711 171.745 C 340.443 171.579,340.392 171.664,340.579 171.965 C 340.745 172.234,341.158 172.348,341.497 172.218 C 342.008 172.022,342.027 172.086,341.608 172.591 C 341.262 173.008,341.244 173.200,341.551 173.200 C 341.798 173.200,342.000 173.560,342.000 174.000 C 342.000 174.987,342.621 175.040,343.168 174.100 C 343.507 173.518,343.578 173.616,343.588 174.676 C 343.595 175.378,343.772 176.059,343.983 176.189 C 344.193 176.319,344.252 176.721,344.113 177.082 C 343.924 177.576,344.027 177.675,344.531 177.482 C 344.899 177.341,345.200 177.410,345.200 177.636 C 345.200 177.862,345.364 177.946,345.565 177.822 C 345.766 177.698,345.885 177.902,345.830 178.276 C 345.775 178.651,345.513 179.029,345.248 179.117 C 344.883 179.239,344.878 179.412,345.229 179.834 C 345.483 180.141,345.895 180.269,346.145 180.119 C 346.478 179.920,346.476 180.002,346.140 180.423 C 345.700 180.975,346.411 182.256,346.891 181.776 C 346.987 181.679,347.067 181.862,347.067 182.182 C 347.067 182.503,346.917 182.672,346.733 182.559 C 346.550 182.445,346.400 182.515,346.400 182.712 C 346.400 182.910,346.850 183.277,347.400 183.527 C 347.950 183.778,348.397 184.212,348.394 184.491 C 348.390 184.842,348.267 184.813,348.000 184.400 C 347.767 184.039,347.610 183.990,347.606 184.276 C 347.603 184.538,347.763 184.854,347.962 184.977 C 348.162 185.100,348.236 185.540,348.128 185.955 C 348.019 186.370,348.126 186.831,348.365 186.978 C 348.604 187.126,348.800 187.599,348.800 188.029 C 348.800 188.460,349.295 189.124,349.900 189.506 C 351.004 190.203,351.475 191.583,350.759 192.025 C 350.545 192.158,350.746 192.732,351.217 193.331 C 351.680 193.919,351.865 194.400,351.629 194.400 C 351.393 194.400,351.200 194.560,351.200 194.756 C 351.200 194.951,351.515 195.086,351.900 195.056 C 352.285 195.025,352.555 195.225,352.500 195.500 C 352.445 195.775,352.610 196.000,352.867 196.000 C 353.123 196.000,353.229 196.105,353.101 196.232 C 352.973 196.360,352.493 196.264,352.034 196.018 C 351.575 195.773,351.200 195.739,351.200 195.943 C 351.200 196.147,351.456 196.413,351.769 196.533 C 352.119 196.667,352.254 197.071,352.121 197.581 C 351.945 198.252,352.048 198.366,352.652 198.173 C 353.357 197.948,353.355 197.971,352.624 198.567 C 351.916 199.144,352.041 199.397,352.949 199.231 C 353.141 199.196,353.205 199.411,353.091 199.708 C 352.976 200.006,353.205 200.676,353.599 201.198 C 354.165 201.949,354.219 202.300,353.860 202.875 C 353.346 203.698,353.976 205.081,354.780 204.894 C 355.108 204.818,355.118 205.005,354.817 205.568 C 354.247 206.633,354.265 209.331,354.840 208.975 C 355.131 208.795,355.118 209.007,354.800 209.600 C 354.482 210.193,354.469 210.405,354.760 210.225 C 355.199 209.953,355.365 210.855,355.216 212.700 C 355.176 213.195,355.436 213.893,355.794 214.252 C 356.153 214.610,356.351 215.150,356.236 215.452 C 356.120 215.753,356.244 216.014,356.513 216.032 C 356.882 216.056,356.879 216.112,356.500 216.265 C 355.684 216.594,355.874 218.014,356.700 217.757 C 357.367 217.550,357.367 217.561,356.700 217.990 C 355.835 218.546,355.819 218.962,356.629 219.771 C 357.200 220.343,357.191 220.401,356.529 220.413 C 355.894 220.424,355.877 220.488,356.400 220.913 C 356.876 221.299,356.984 222.293,356.922 225.710 C 356.875 228.332,356.993 229.928,357.222 229.786 C 357.430 229.658,357.600 229.934,357.600 230.400 C 357.600 230.866,357.454 231.157,357.275 231.047 C 357.097 230.936,356.938 231.542,356.922 232.392 C 356.901 233.548,357.033 233.886,357.443 233.728 C 358.146 233.458,357.789 237.231,357.069 237.690 C 356.756 237.888,356.825 237.990,357.275 237.994 C 357.828 237.999,357.907 238.265,357.712 239.462 C 357.520 240.646,357.582 240.863,358.038 240.604 C 358.493 240.344,358.505 240.386,358.100 240.821 C 357.825 241.118,357.600 241.774,357.600 242.280 C 357.600 242.786,357.825 243.214,358.100 243.232 C 358.375 243.249,358.420 243.339,358.200 243.432 C 357.856 243.576,357.767 335.335,358.103 343.863 C 358.156 345.218,358.049 346.233,357.865 346.118 C 357.682 346.004,357.590 346.425,357.661 347.055 C 357.736 347.715,357.609 348.167,357.362 348.122 C 356.867 348.032,356.763 349.209,357.214 349.800 C 357.382 350.020,357.247 350.451,356.914 350.758 C 356.385 351.246,356.343 351.208,356.582 350.458 C 356.744 349.946,356.682 349.600,356.427 349.600 C 356.192 349.600,356.000 350.118,356.000 350.751 C 356.000 351.384,355.695 352.149,355.323 352.451 C 354.863 352.824,354.743 352.840,354.947 352.500 C 355.112 352.225,355.134 352.000,354.995 352.000 C 354.680 352.000,353.566 353.095,353.586 353.386 C 353.594 353.504,353.506 353.596,353.392 353.592 C 352.981 353.575,352.088 354.606,352.263 354.895 C 352.361 355.058,352.133 355.072,351.755 354.927 C 351.342 354.769,351.167 354.824,351.317 355.065 C 351.453 355.286,351.311 355.467,351.000 355.467 C 350.689 355.467,350.545 355.289,350.679 355.072 C 350.814 354.854,350.725 354.799,350.482 354.950 C 349.757 355.398,298.219 355.246,298.067 354.795 C 297.993 354.578,297.668 354.400,297.343 354.400 C 296.999 354.400,296.872 354.592,297.038 354.862 C 297.215 355.148,297.148 355.215,296.862 355.038 C 296.608 354.881,296.400 354.493,296.400 354.176 C 296.400 353.859,296.062 353.600,295.649 353.600 C 295.236 353.600,294.672 353.328,294.396 352.995 C 294.119 352.662,293.602 352.437,293.247 352.495 C 292.831 352.562,292.552 352.262,292.466 351.656 C 292.381 351.054,292.490 350.809,292.766 350.979 C 293.005 351.127,293.200 351.069,293.200 350.851 C 293.200 350.634,292.795 350.398,292.300 350.328 C 291.805 350.258,291.397 350.020,291.394 349.800 C 291.391 349.580,291.245 349.175,291.070 348.900 C 290.896 348.625,290.858 348.231,290.985 348.023 C 291.348 347.437,291.162 243.823,290.796 242.200 C 290.746 241.980,290.744 241.710,290.792 241.600 C 291.108 240.876,291.000 239.199,290.638 239.194 C 290.397 239.191,290.470 239.013,290.800 238.800 C 291.130 238.587,291.194 238.409,290.943 238.406 C 290.299 238.398,289.944 237.282,290.479 236.951 C 290.772 236.770,290.812 236.869,290.598 237.238 C 290.418 237.547,290.426 237.660,290.614 237.488 C 291.262 236.898,291.153 236.044,290.461 236.291 C 290.097 236.421,289.927 236.386,290.083 236.214 C 290.239 236.042,289.969 235.569,289.483 235.164 C 288.699 234.509,288.681 234.425,289.324 234.413 C 289.722 234.406,289.955 234.550,289.841 234.733 C 289.728 234.917,289.880 235.067,290.179 235.067 C 290.479 235.067,290.632 234.827,290.519 234.533 C 290.407 234.240,290.154 234.000,289.957 234.000 C 289.761 234.000,289.600 233.719,289.600 233.376 C 289.600 233.033,289.784 232.866,290.009 233.005 C 290.258 233.160,290.382 232.791,290.326 232.057 C 290.275 231.396,290.134 230.917,290.013 230.992 C 289.891 231.067,289.444 230.875,289.019 230.565 C 288.595 230.254,288.472 230.000,288.747 230.000 C 289.022 230.000,289.136 229.820,289.000 229.600 C 288.864 229.380,288.898 229.200,289.076 229.200 C 289.476 229.200,289.441 227.249,289.024 226.302 C 288.854 225.919,288.555 225.704,288.358 225.826 C 288.012 226.040,287.826 225.174,287.979 224.060 C 288.020 223.763,287.874 223.631,287.654 223.766 C 287.435 223.902,287.139 223.826,286.998 223.597 C 286.856 223.368,286.956 223.230,287.220 223.290 C 287.484 223.351,287.783 223.175,287.883 222.900 C 287.999 222.586,287.841 222.486,287.458 222.633 C 286.976 222.818,286.883 222.608,287.008 221.620 C 287.120 220.732,287.027 220.452,286.683 220.646 C 286.334 220.842,286.339 220.768,286.700 220.379 C 286.975 220.082,287.197 219.651,287.194 219.420 C 287.191 219.189,287.013 219.270,286.800 219.600 C 286.402 220.216,286.190 219.440,286.379 218.060 C 286.420 217.763,286.261 217.638,286.027 217.783 C 285.664 218.008,285.417 217.278,285.539 216.341 C 285.557 216.199,285.191 216.182,284.724 216.304 C 284.067 216.476,283.954 216.399,284.226 215.963 C 284.623 215.327,284.856 214.211,284.522 214.544 C 284.203 214.863,283.313 213.865,283.119 212.972 C 283.028 212.547,282.757 212.239,282.517 212.286 C 282.265 212.336,282.163 212.001,282.276 211.486 C 282.420 210.827,282.369 210.742,282.078 211.154 C 281.683 211.712,280.499 210.260,280.719 209.488 C 280.768 209.317,280.311 209.494,279.704 209.881 C 278.749 210.491,278.670 210.497,279.119 209.929 C 279.452 209.508,279.494 209.182,279.237 209.023 C 279.016 208.886,278.928 208.531,279.043 208.233 C 279.180 207.875,278.437 207.308,276.849 206.558 C 275.439 205.892,274.365 205.108,274.247 204.660 C 274.120 204.173,273.826 203.981,273.437 204.131 C 273.101 204.260,272.717 204.190,272.585 203.976 C 272.453 203.762,272.204 203.674,272.033 203.780 C 271.861 203.886,271.489 203.540,271.206 203.012 C 270.616 201.908,269.391 202.590,269.844 203.770 C 269.983 204.133,269.877 204.400,269.593 204.400 C 269.257 204.400,269.178 204.012,269.343 203.184 C 269.544 202.180,269.466 201.988,268.893 202.084 C 268.508 202.148,268.244 201.978,268.300 201.700 C 268.419 201.104,267.752 201.030,267.400 201.600 C 267.264 201.820,266.938 201.986,266.676 201.968 C 266.360 201.947,266.378 201.866,266.728 201.726 C 267.078 201.586,266.893 201.326,266.183 200.957 C 264.743 200.211,263.633 200.255,262.638 201.100 C 261.853 201.767,261.840 201.767,262.356 201.100 C 262.932 200.355,262.441 200.119,261.751 200.809 C 261.471 201.089,261.108 200.962,260.609 200.409 C 260.206 199.964,259.679 199.603,259.438 199.606 C 259.197 199.609,259.270 199.787,259.600 200.000 C 260.119 200.335,260.110 200.389,259.533 200.394 C 259.166 200.397,258.579 200.510,258.228 200.645 C 257.762 200.824,257.657 200.716,257.838 200.245 C 258.005 199.811,257.868 199.600,257.419 199.600 C 257.053 199.600,256.864 199.780,257.000 200.000 C 257.136 200.220,256.956 200.400,256.600 200.400 C 256.244 200.400,256.043 200.254,256.153 200.076 C 256.450 199.595,252.327 199.617,251.417 200.101 C 250.713 200.475,250.258 200.575,248.476 200.749 C 248.188 200.777,248.057 200.969,248.185 201.175 C 248.317 201.389,247.956 201.466,247.344 201.355 C 246.709 201.240,246.137 201.373,245.942 201.681 C 245.684 202.088,245.605 202.070,245.578 201.600 C 245.555 201.196,245.432 201.261,245.200 201.800 C 244.904 202.489,244.852 202.502,244.828 201.897 C 244.804 201.301,244.681 201.268,244.020 201.680 C 243.527 201.988,243.372 202.325,243.598 202.598 C 243.831 202.879,243.701 203.029,243.223 203.029 C 242.791 203.029,242.572 202.818,242.688 202.514 C 242.797 202.231,242.699 202.000,242.471 202.000 C 242.242 202.000,241.998 202.405,241.928 202.900 C 241.836 203.547,241.542 203.791,240.883 203.766 C 240.274 203.744,240.034 203.912,240.170 204.266 C 240.283 204.560,240.201 204.800,239.987 204.800 C 239.774 204.800,239.600 204.528,239.600 204.197 C 239.600 203.700,239.463 203.679,238.826 204.077 C 238.400 204.343,238.135 204.695,238.237 204.860 C 238.480 205.252,236.757 206.200,236.060 206.057 C 235.763 205.996,235.629 206.124,235.764 206.341 C 235.898 206.558,235.744 206.999,235.423 207.320 C 235.101 207.642,234.950 208.016,235.086 208.152 C 235.222 208.289,235.011 208.400,234.618 208.400 C 234.015 208.400,233.984 208.499,234.419 209.023 C 234.703 209.365,234.770 209.614,234.568 209.575 C 234.365 209.537,234.065 209.549,233.900 209.603 C 233.735 209.656,233.465 209.729,233.300 209.764 C 233.135 209.799,232.610 210.046,232.132 210.311 C 231.450 210.691,231.218 210.688,231.048 210.297 C 230.929 210.024,230.929 210.340,231.048 211.000 C 231.186 211.765,231.135 212.017,230.906 211.696 C 230.635 211.315,230.309 211.453,229.574 212.260 C 228.808 213.100,228.754 213.273,229.321 213.069 C 229.751 212.914,229.943 212.969,229.797 213.205 C 229.663 213.422,229.304 213.600,229.000 213.600 C 228.696 213.600,228.319 213.808,228.162 214.062 C 227.991 214.337,228.051 214.415,228.311 214.255 C 228.549 214.108,228.850 214.157,228.978 214.365 C 229.107 214.572,228.853 214.856,228.414 214.996 C 227.975 215.135,227.648 215.373,227.687 215.524 C 227.894 216.327,227.096 217.682,226.728 217.153 C 226.458 216.765,226.391 216.992,226.505 217.917 C 226.625 218.895,226.529 219.182,226.133 219.030 C 225.838 218.916,225.600 219.087,225.600 219.413 C 225.600 219.736,225.436 220.000,225.235 220.000 C 225.035 220.000,224.920 220.450,224.980 221.000 C 225.041 221.550,224.955 222.000,224.791 222.000 C 224.627 222.000,224.183 222.472,223.805 223.049 C 223.426 223.626,223.297 223.987,223.517 223.852 C 223.736 223.716,224.019 223.874,224.146 224.202 C 224.305 224.618,224.104 224.810,223.487 224.832 C 222.999 224.849,222.835 224.957,223.121 225.072 C 223.511 225.228,223.461 225.419,222.921 225.833 C 222.293 226.314,222.277 226.436,222.800 226.786 C 223.333 227.143,223.333 227.189,222.800 227.200 C 222.267 227.211,222.267 227.260,222.800 227.641 C 223.292 227.993,223.253 228.038,222.581 227.893 C 221.998 227.768,221.745 227.931,221.706 228.459 C 221.675 228.866,221.838 229.200,222.069 229.200 C 222.300 229.200,222.064 229.554,221.544 229.987 C 220.962 230.471,220.811 230.778,221.149 230.787 C 221.590 230.797,221.601 230.917,221.203 231.396 C 220.931 231.724,220.788 232.538,220.886 233.204 C 220.991 233.922,220.847 234.595,220.532 234.857 C 220.239 235.099,220.000 235.715,220.000 236.225 C 220.000 236.735,219.820 237.264,219.600 237.400 C 219.380 237.536,219.200 237.917,219.200 238.247 C 219.200 238.621,219.389 238.734,219.700 238.547 C 220.097 238.308,220.099 238.372,219.710 238.853 C 219.440 239.186,219.244 240.127,219.275 240.944 C 219.306 241.761,219.121 242.639,218.865 242.895 C 218.319 243.441,218.238 244.148,218.758 243.826 C 219.396 243.432,219.585 244.758,218.977 245.366 C 218.464 245.879,218.402 252.542,218.494 297.373 C 218.580 339.206,218.503 348.828,218.081 348.990 C 217.796 349.100,217.616 349.507,217.681 349.895 C 217.747 350.283,217.581 350.557,217.314 350.505 C 217.035 350.450,216.925 350.661,217.056 351.001 C 217.185 351.339,217.003 351.701,216.631 351.843 C 216.121 352.039,216.081 352.215,216.446 352.656 C 216.822 353.109,216.782 353.168,216.240 352.960 C 215.812 352.796,215.610 352.882,215.684 353.198 C 215.748 353.471,215.484 353.747,215.098 353.812 C 214.712 353.877,214.499 353.763,214.626 353.558 C 214.752 353.354,215.051 353.308,215.289 353.455 C 215.568 353.627,215.607 353.534,215.398 353.197 C 215.151 352.797,214.817 352.952,214.017 353.835 C 213.436 354.476,212.610 355.261,212.181 355.581 C 211.565 356.039,211.505 356.043,211.900 355.601 C 212.175 355.292,212.397 354.851,212.394 354.620 C 212.391 354.389,212.242 354.430,212.063 354.711 C 211.806 355.117,206.530 355.221,186.370 355.214 C 172.225 355.210,161.236 355.357,161.534 355.547 C 161.970 355.827,161.961 355.929,161.484 356.112 C 161.129 356.249,160.700 355.960,160.386 355.373 C 160.006 354.665,159.737 354.520,159.369 354.826 C 158.999 355.132,158.796 355.018,158.598 354.392 C 158.420 353.834,158.114 353.624,157.707 353.780 C 157.192 353.978,157.173 353.915,157.592 353.409 C 158.018 352.896,157.963 352.800,157.239 352.800 C 156.605 352.800,156.317 352.486,156.140 351.600 C 155.926 350.531,155.590 350.228,154.741 350.339 C 154.599 350.357,154.582 349.991,154.704 349.524 C 154.862 348.922,154.784 348.763,154.437 348.977 C 154.069 349.205,154.018 348.912,154.230 347.782 C 154.422 346.758,154.375 346.368,154.083 346.549 C 153.848 346.694,153.525 346.602,153.366 346.345 C 153.185 346.053,153.250 345.984,153.537 346.161 C 153.883 346.375,154.022 322.781,154.098 250.823 C 154.155 197.572,154.047 155.200,153.856 155.200 C 153.666 155.200,153.936 154.844,154.456 154.408 C 155.055 153.906,155.248 153.504,154.983 153.308 C 154.743 153.131,154.681 152.492,154.836 151.800 C 154.984 151.140,155.134 150.870,155.169 151.200 C 155.207 151.566,155.465 151.371,155.829 150.700 C 156.157 150.095,156.610 149.600,156.836 149.600 C 157.062 149.600,157.119 149.392,156.962 149.138 C 156.789 148.859,156.852 148.785,157.121 148.951 C 157.365 149.102,157.452 149.521,157.313 149.882 C 157.136 150.345,157.318 150.282,157.931 149.669 C 158.409 149.191,158.991 148.800,159.224 148.800 C 159.457 148.800,159.536 148.620,159.400 148.400 C 159.264 148.180,159.523 148.000,159.976 148.000 C 160.429 148.000,160.814 147.775,160.832 147.500 C 160.857 147.100,160.904 147.100,161.065 147.500 C 161.176 147.775,161.442 148.000,161.657 148.000 C 161.872 148.000,161.936 147.820,161.800 147.600 C 161.664 147.380,161.728 147.200,161.943 147.200 C 162.158 147.200,162.424 147.425,162.535 147.700 C 162.673 148.042,162.747 148.010,162.768 147.600 C 162.810 146.809,209.560 146.889,210.050 147.681 C 210.267 148.032,210.496 148.018,210.970 147.625 C 211.426 147.247,211.600 147.233,211.600 147.575 C 211.600 147.835,211.783 147.934,212.007 147.796 C 212.230 147.658,212.291 147.332,212.142 147.072 C 211.987 146.801,212.026 146.742,212.236 146.933 C 212.436 147.117,212.623 147.432,212.650 147.633 C 212.678 147.835,212.722 148.168,212.750 148.374 C 212.778 148.579,213.279 148.660,213.865 148.554 C 214.791 148.386,214.863 148.442,214.416 148.980 C 213.971 149.517,214.069 149.600,215.151 149.600 C 216.145 149.600,216.400 149.768,216.400 150.424 C 216.400 150.877,216.580 151.136,216.800 151.000 C 217.020 150.864,217.200 150.954,217.200 151.200 C 217.200 151.446,217.368 151.544,217.572 151.417 C 218.174 151.045,218.538 152.026,217.986 152.535 C 217.601 152.891,217.548 152.884,217.762 152.505 C 217.954 152.164,217.833 152.089,217.374 152.265 C 216.791 152.489,216.817 152.581,217.574 152.986 C 218.424 153.441,218.444 153.650,218.521 163.025 C 218.581 170.285,218.717 172.577,219.086 172.505 C 219.366 172.450,219.475 172.661,219.343 173.005 C 219.217 173.332,219.324 173.600,219.581 173.600 C 219.837 173.600,219.969 173.465,219.874 173.300 C 219.624 172.869,220.214 171.401,220.640 171.394 C 220.838 171.391,221.253 171.228,221.562 171.032 C 221.971 170.773,222.036 170.819,221.800 171.200 C 221.577 171.561,221.632 171.627,221.976 171.415 C 222.251 171.245,222.393 170.676,222.292 170.150 C 222.144 169.370,222.212 169.278,222.664 169.653 C 223.101 170.016,223.169 169.985,222.987 169.509 C 222.834 169.111,223.069 168.811,223.677 168.629 C 224.545 168.370,224.554 168.335,223.827 168.046 C 223.294 167.834,223.201 167.647,223.527 167.445 C 223.787 167.284,224.178 167.263,224.395 167.397 C 224.622 167.537,224.689 167.377,224.554 167.023 C 224.397 166.616,224.638 166.276,225.258 166.028 C 226.097 165.692,226.112 165.647,225.400 165.619 C 224.756 165.594,224.713 165.516,225.181 165.220 C 225.500 165.018,225.910 164.944,226.091 165.056 C 226.272 165.168,226.616 164.701,226.854 164.017 C 227.202 163.018,227.396 162.865,227.844 163.236 C 228.289 163.606,228.400 163.529,228.400 162.849 C 228.400 162.382,228.580 162.000,228.800 162.000 C 229.020 162.000,229.155 161.797,229.100 161.550 C 229.045 161.302,229.250 161.009,229.556 160.898 C 229.928 160.763,230.017 160.879,229.826 161.248 C 229.669 161.552,229.828 161.445,230.179 161.011 C 230.530 160.578,230.723 159.948,230.608 159.611 C 230.480 159.239,230.633 159.304,230.999 159.776 C 231.587 160.536,231.600 160.534,231.600 159.676 C 231.600 158.966,231.831 158.800,232.824 158.800 C 233.497 158.800,233.948 158.639,233.826 158.443 C 233.705 158.246,234.054 157.973,234.603 157.835 C 235.666 157.568,235.925 156.970,235.100 156.688 C 234.825 156.594,235.004 156.584,235.498 156.665 C 236.045 156.756,236.666 156.499,237.087 156.007 C 237.467 155.563,238.076 155.200,238.440 155.200 C 238.804 155.200,239.349 154.885,239.651 154.500 C 240.149 153.866,240.134 153.851,239.500 154.349 C 239.115 154.651,238.800 154.715,238.800 154.492 C 238.800 154.015,239.746 153.600,240.833 153.600 C 241.384 153.600,241.600 153.319,241.600 152.600 C 241.600 152.050,241.791 151.600,242.024 151.600 C 242.257 151.600,242.317 151.811,242.158 152.068 C 241.956 152.395,242.099 152.447,242.634 152.238 C 243.055 152.075,243.580 151.909,243.800 151.870 C 244.020 151.832,244.311 151.647,244.448 151.461 C 244.584 151.274,245.154 151.094,245.713 151.061 C 246.437 151.018,246.620 150.866,246.346 150.536 C 246.093 150.231,246.126 149.969,246.442 149.774 C 246.747 149.585,246.819 149.645,246.638 149.938 C 246.454 150.237,246.679 150.398,247.276 150.394 C 248.019 150.389,248.083 150.312,247.600 150.000 C 247.013 149.620,248.306 149.388,250.000 149.569 C 250.490 149.622,250.501 149.566,250.056 149.266 C 249.756 149.063,249.126 148.993,248.656 149.108 C 248.185 149.224,247.894 149.212,248.009 149.083 C 248.124 148.954,248.693 148.762,249.274 148.657 C 249.855 148.552,250.706 148.265,251.165 148.019 C 251.647 147.761,252.000 147.733,252.000 147.953 C 252.000 148.162,251.775 148.424,251.500 148.535 C 251.184 148.662,251.242 148.748,251.657 148.768 C 252.019 148.786,252.407 148.559,252.520 148.264 C 252.654 147.915,253.160 147.791,253.968 147.910 C 255.018 148.064,255.169 147.985,254.945 147.400 C 254.710 146.790,254.787 146.765,255.588 147.193 C 256.309 147.580,256.433 147.577,256.189 147.182 C 255.957 146.807,256.169 146.751,257.040 146.954 C 257.890 147.152,258.040 147.116,257.600 146.818 C 256.922 146.359,257.047 146.331,259.730 146.332 C 261.036 146.333,261.602 146.182,261.481 145.867 C 261.376 145.592,261.692 145.400,262.251 145.400 C 262.773 145.400,263.200 145.522,263.200 145.672 C 263.200 145.822,263.695 145.803,264.300 145.631 C 264.905 145.459,265.729 145.368,266.131 145.428 C 266.556 145.492,266.787 145.342,266.682 145.069 C 266.550 144.724,267.910 144.607,271.830 144.628 C 275.516 144.648,277.080 144.525,276.902 144.228 C 276.761 143.992,276.911 144.014,277.237 144.277 C 277.604 144.574,278.043 144.621,278.400 144.400 C 278.750 144.184,279.177 144.215,279.496 144.479 C 279.891 144.808,279.964 144.773,279.797 144.335 C 279.623 143.882,279.879 143.793,280.987 143.923 C 281.764 144.013,282.403 144.293,282.406 144.544 M91.568 147.206 C 106.206 147.219,114.345 147.365,114.192 147.613 C 114.055 147.835,114.560 148.000,115.376 148.000 C 116.159 148.000,116.800 147.813,116.800 147.584 C 116.800 147.344,117.036 147.387,117.358 147.684 C 117.665 147.968,117.840 148.326,117.747 148.480 C 117.654 148.634,117.928 148.947,118.357 149.177 C 118.927 149.482,119.197 149.460,119.364 149.097 C 119.490 148.824,119.485 149.028,119.353 149.550 C 119.193 150.189,119.259 150.411,119.557 150.226 C 119.809 150.071,120.000 150.222,120.000 150.576 C 120.000 150.955,120.354 151.202,120.900 151.206 C 121.628 151.211,121.685 151.286,121.200 151.600 C 120.800 151.858,120.767 151.990,121.100 151.994 C 121.375 151.997,121.600 152.371,121.600 152.824 C 121.600 153.277,121.772 153.541,121.983 153.411 C 122.193 153.281,122.269 152.865,122.152 152.487 C 121.959 151.861,121.980 151.863,122.391 152.503 C 122.640 152.890,122.741 153.372,122.615 153.576 C 122.490 153.779,122.570 154.058,122.793 154.196 C 123.017 154.334,123.200 155.052,123.200 155.790 C 123.200 156.529,123.425 157.238,123.700 157.367 C 124.100 157.553,124.099 157.647,123.698 157.834 C 123.298 158.020,123.198 177.173,123.202 252.467 C 123.204 304.386,123.087 347.059,122.941 347.295 C 122.791 347.539,122.863 347.608,123.111 347.455 C 123.349 347.308,123.661 347.374,123.802 347.603 C 123.944 347.832,123.911 347.994,123.730 347.963 C 122.792 347.800,122.400 348.093,122.400 348.957 C 122.400 349.484,122.147 350.012,121.838 350.130 C 121.528 350.249,121.154 350.898,121.006 351.573 C 120.819 352.423,120.500 352.800,119.968 352.800 C 119.527 352.800,119.200 353.076,119.200 353.447 C 119.200 353.897,118.956 354.030,118.399 353.884 C 117.959 353.769,117.700 353.838,117.823 354.037 C 117.946 354.237,117.623 354.400,117.104 354.400 C 116.585 354.400,115.964 354.596,115.725 354.835 C 115.421 355.139,108.366 355.254,92.245 355.218 C 73.666 355.177,69.199 355.268,69.194 355.684 C 69.189 356.077,69.104 356.068,68.836 355.645 C 68.617 355.299,68.082 355.168,67.411 355.296 C 66.715 355.429,66.263 355.307,66.126 354.951 C 66.009 354.648,65.743 354.400,65.534 354.400 C 65.324 354.400,65.267 354.625,65.407 354.900 C 65.547 355.175,65.303 354.995,64.866 354.500 C 64.384 353.954,63.613 353.600,62.906 353.600 C 62.153 353.600,61.396 353.223,60.770 352.536 C 59.957 351.645,59.923 351.516,60.557 351.745 C 61.198 351.977,61.236 351.926,60.808 351.409 C 60.530 351.074,59.919 350.797,59.451 350.794 C 58.955 350.790,58.783 350.665,59.039 350.494 C 59.545 350.156,59.637 348.730,59.133 349.041 C 58.950 349.155,58.800 348.866,58.800 348.400 C 58.800 347.934,58.640 347.651,58.445 347.772 C 58.250 347.892,57.997 347.633,57.883 347.196 C 57.769 346.759,57.838 346.300,58.038 346.177 C 58.237 346.054,58.400 346.173,58.400 346.443 C 58.400 346.713,58.516 346.818,58.657 346.676 C 58.798 346.535,58.709 346.172,58.459 345.871 C 58.121 345.464,58.003 321.040,58.003 251.426 C 58.003 199.782,57.902 157.365,57.778 157.165 C 57.454 156.640,57.979 155.940,58.470 156.244 C 58.744 156.413,58.792 156.074,58.611 155.250 C 58.383 154.213,58.444 154.042,58.968 154.243 C 59.316 154.377,59.600 154.286,59.600 154.043 C 59.600 153.799,59.420 153.600,59.200 153.600 C 58.980 153.600,58.803 153.285,58.806 152.900 C 58.811 152.302,58.869 152.287,59.200 152.800 C 59.531 153.313,59.589 153.298,59.594 152.700 C 59.597 152.315,59.791 152.000,60.024 152.000 C 60.257 152.000,60.342 151.829,60.212 151.620 C 60.083 151.411,60.348 151.042,60.800 150.800 C 61.252 150.558,61.506 150.171,61.363 149.940 C 61.210 149.692,61.473 149.718,62.006 150.003 C 62.852 150.456,62.892 150.422,62.653 149.468 C 62.409 148.495,62.459 148.460,63.799 148.677 C 64.708 148.825,65.200 148.746,65.200 148.452 C 65.200 148.204,65.650 148.000,66.200 148.000 C 66.750 148.000,67.203 147.775,67.206 147.500 C 67.210 147.167,67.342 147.200,67.600 147.600 C 67.929 148.109,67.989 148.090,67.994 147.476 C 67.997 147.078,68.158 146.851,68.352 146.970 C 68.545 147.090,78.992 147.196,91.568 147.206 M79.700 147.900 C 85.805 147.962,95.795 147.962,101.900 147.900 C 108.005 147.838,103.010 147.787,90.800 147.787 C 78.590 147.787,73.595 147.838,79.700 147.900 M175.129 147.900 C 181.579 147.962,192.019 147.962,198.329 147.900 C 204.638 147.838,199.360 147.787,186.600 147.787 C 173.840 147.787,168.678 147.838,175.129 147.900 M349.343 185.805 C 349.215 186.138,349.319 186.662,349.575 186.969 C 349.928 187.395,349.924 187.600,349.558 187.826 C 349.262 188.009,349.181 187.955,349.347 187.686 C 349.495 187.446,349.315 187.080,348.947 186.874 C 348.253 186.486,348.429 185.200,349.175 185.200 C 349.395 185.200,349.470 185.472,349.343 185.805 M289.900 323.269 C 289.841 335.661,289.793 325.640,289.793 301.000 C 289.793 276.360,289.841 266.221,289.900 278.469 C 289.959 290.717,289.959 310.877,289.900 323.269 M297.242 356.518 C 296.728 357.032,296.207 356.635,296.588 356.020 C 296.735 355.782,297.039 355.700,297.262 355.839 C 297.536 356.007,297.529 356.231,297.242 356.518 " stroke="none" fill="{{ .fill }}" fill-rule="evenodd">
    </path>
    <path id="path1" d="M36.092 0.475 C 36.339 1.217,37.200 1.340,37.200 0.633 C 37.200 0.285,36.915 0.000,36.567 0.000 C 36.218 0.000,36.005 0.214,36.092 0.475 M362.800 0.600 C 362.800 1.376,363.447 1.376,363.745 0.600 C 363.885 0.235,363.745 0.000,363.387 0.000 C 363.064 0.000,362.800 0.270,362.800 0.600 M368.400 0.417 C 368.400 0.579,369.012 0.630,369.760 0.529 C 370.507 0.428,371.238 0.538,371.383 0.773 C 371.528 1.008,371.857 1.200,372.113 1.200 C 372.369 1.200,372.208 0.941,371.757 0.625 C 370.919 0.038,368.400 -0.118,368.400 0.417 M11.729 8.662 C 11.874 8.807,11.773 9.213,11.503 9.563 C 11.234 9.913,11.435 9.840,11.949 9.400 C 12.463 8.960,12.940 8.690,13.009 8.800 C 13.077 8.910,13.230 8.904,13.348 8.786 C 13.466 8.668,13.090 8.532,12.513 8.485 C 11.936 8.437,11.583 8.517,11.729 8.662 M9.396 11.607 C 9.258 11.830,8.978 11.910,8.775 11.785 C 8.572 11.659,8.443 12.007,8.488 12.559 C 8.534 13.111,8.608 13.526,8.652 13.481 C 8.697 13.436,8.703 13.284,8.667 13.142 C 8.630 13.000,8.943 12.505,9.362 12.042 C 9.781 11.579,10.017 11.200,9.886 11.200 C 9.754 11.200,9.534 11.383,9.396 11.607 M398.571 26.991 C 397.894 27.503,397.883 27.576,398.476 27.587 C 398.848 27.594,399.271 27.408,399.416 27.173 C 399.852 26.468,399.393 26.370,398.571 26.991 M0.000 36.567 C 0.000 36.915,0.285 37.200,0.633 37.200 C 0.982 37.200,1.195 36.986,1.108 36.725 C 0.861 35.983,0.000 35.860,0.000 36.567 M399.067 36.267 C 398.606 36.727,398.775 37.200,399.400 37.200 C 399.730 37.200,400.000 36.930,400.000 36.600 C 400.000 35.975,399.527 35.806,399.067 36.267 M109.443 47.833 C 109.293 48.223,109.382 48.406,109.675 48.308 C 110.273 48.109,110.602 47.200,110.076 47.200 C 109.861 47.200,109.576 47.485,109.443 47.833 M73.015 48.142 C 72.226 48.478,71.992 48.748,72.315 48.947 C 72.582 49.112,72.800 49.057,72.800 48.824 C 72.800 48.591,73.160 48.400,73.600 48.400 C 74.040 48.400,74.400 48.220,74.400 48.000 C 74.400 47.523,74.487 47.514,73.015 48.142 M112.243 50.567 C 112.376 50.915,112.661 51.200,112.876 51.200 C 113.402 51.200,113.073 50.291,112.475 50.092 C 112.182 49.994,112.093 50.177,112.243 50.567 M117.318 53.808 C 116.939 54.216,116.958 54.375,117.405 54.547 C 118.081 54.806,118.459 54.341,118.074 53.725 C 117.882 53.420,117.655 53.445,117.318 53.808 M63.200 54.190 C 62.238 54.731,62.234 54.750,63.090 54.692 C 63.579 54.659,64.068 54.399,64.177 54.116 C 64.416 53.494,64.443 53.492,63.200 54.190 M61.588 56.023 C 60.998 57.125,61.218 57.274,62.127 56.389 C 62.571 55.958,62.696 55.583,62.447 55.429 C 62.223 55.291,61.837 55.558,61.588 56.023 M58.890 58.820 C 58.951 59.084,58.750 59.391,58.444 59.502 C 58.072 59.637,57.993 59.535,58.206 59.190 C 58.422 58.840,58.365 58.774,58.027 58.983 C 57.328 59.415,58.103 60.089,58.933 59.770 C 59.687 59.481,59.799 58.970,59.190 58.594 C 58.965 58.455,58.830 58.556,58.890 58.820 M56.000 60.533 C 56.000 60.827,56.253 61.067,56.562 61.067 C 56.871 61.067,57.032 60.827,56.919 60.533 C 56.807 60.240,56.554 60.000,56.357 60.000 C 56.161 60.000,56.000 60.240,56.000 60.533 M124.739 61.447 C 124.977 61.913,125.046 62.453,124.893 62.647 C 124.739 62.841,124.873 62.774,125.190 62.497 C 125.687 62.063,125.666 61.899,125.036 61.297 C 124.338 60.630,124.325 60.637,124.739 61.447 M125.810 63.184 C 125.471 63.733,125.771 64.145,126.362 63.942 C 126.604 63.858,126.635 63.576,126.437 63.257 C 126.187 62.855,126.025 62.836,125.810 63.184 M131.200 75.353 C 131.200 75.683,131.380 76.064,131.600 76.200 C 131.820 76.336,132.000 76.177,132.000 75.847 C 132.000 75.517,131.820 75.136,131.600 75.000 C 131.380 74.864,131.200 75.023,131.200 75.353 M49.041 78.388 C 49.152 79.151,49.340 79.871,49.460 79.988 C 49.580 80.105,49.620 79.840,49.549 79.400 C 49.478 78.960,49.578 78.347,49.772 78.038 C 50.003 77.669,49.977 77.567,49.696 77.741 C 49.461 77.886,49.172 77.779,49.054 77.502 C 48.936 77.226,48.931 77.625,49.041 78.388 M132.233 93.457 C 131.852 94.450,132.272 94.586,132.782 93.634 C 133.027 93.175,133.061 92.800,132.857 92.800 C 132.653 92.800,132.372 93.096,132.233 93.457 M54.400 109.200 C 54.400 109.658,54.667 110.000,55.024 110.000 C 55.367 110.000,55.536 110.180,55.400 110.400 C 55.264 110.620,55.342 110.800,55.574 110.800 C 55.805 110.800,55.946 110.485,55.886 110.100 C 55.632 108.473,54.400 107.727,54.400 109.200 M126.100 109.065 C 125.825 109.176,125.600 109.454,125.600 109.682 C 125.600 109.955,125.785 109.945,126.137 109.652 C 126.432 109.407,126.792 109.325,126.937 109.470 C 127.082 109.615,127.200 109.523,127.200 109.267 C 127.200 108.778,126.933 108.729,126.100 109.065 M123.800 112.306 C 122.974 112.913,123.137 113.662,123.994 113.203 C 124.437 112.966,124.800 112.598,124.800 112.386 C 124.800 111.930,124.360 111.895,123.800 112.306 M58.656 113.985 C 59.051 114.781,59.418 115.146,59.519 114.843 C 59.615 114.554,59.306 113.930,58.831 113.458 L 57.968 112.600 58.656 113.985 M61.351 116.938 C 62.000 117.486,62.379 118.110,62.221 118.366 C 62.067 118.615,62.089 118.794,62.270 118.763 C 63.016 118.633,63.635 118.820,63.449 119.120 C 63.341 119.296,63.645 119.685,64.126 119.984 C 64.923 120.481,64.952 120.470,64.451 119.864 C 64.149 119.499,64.033 119.200,64.193 119.200 C 64.617 119.200,62.249 117.090,61.143 116.482 C 60.405 116.076,60.450 116.175,61.351 116.938 M118.800 118.111 C 118.800 118.465,118.400 119.035,117.911 119.377 C 117.271 119.826,117.196 120.000,117.643 120.000 C 118.332 120.000,119.490 118.157,119.067 117.734 C 118.920 117.587,118.800 117.756,118.800 118.111 M66.559 121.802 C 66.976 122.117,67.483 122.272,67.686 122.147 C 68.184 121.839,67.895 121.609,66.754 121.403 C 65.847 121.239,65.837 121.258,66.559 121.802 M111.790 123.118 C 111.906 123.419,112.000 123.754,112.000 123.861 C 112.000 123.969,112.270 123.787,112.600 123.457 C 113.383 122.674,113.359 122.571,112.390 122.571 C 111.869 122.571,111.655 122.767,111.790 123.118 M75.495 125.838 C 75.340 125.994,75.525 126.358,75.906 126.648 C 76.725 127.270,78.159 127.380,77.796 126.793 C 77.658 126.570,77.365 126.498,77.146 126.634 C 76.926 126.769,76.529 126.582,76.262 126.218 C 75.996 125.853,75.651 125.683,75.495 125.838 M99.232 128.300 C 99.252 128.745,99.339 128.812,99.470 128.483 C 99.640 128.061,99.799 128.061,100.339 128.483 C 100.930 128.945,100.942 128.925,100.451 128.300 C 100.149 127.915,99.744 127.600,99.551 127.600 C 99.358 127.600,99.214 127.915,99.232 128.300 M279.849 144.184 C 280.121 144.892,282.400 145.043,282.400 144.353 C 282.400 144.108,282.066 143.994,281.657 144.101 C 281.248 144.208,280.621 144.132,280.263 143.931 C 279.763 143.651,279.667 143.710,279.849 144.184 M266.400 144.641 C 266.400 145.013,267.982 145.553,268.171 145.247 C 268.292 145.051,267.943 144.806,267.395 144.701 C 266.848 144.597,266.400 144.570,266.400 144.641 M257.389 146.417 C 257.259 146.628,257.239 146.800,257.344 146.800 C 257.449 146.800,257.819 146.909,258.167 147.043 C 258.515 147.176,258.800 147.106,258.800 146.886 C 258.800 146.326,257.676 145.953,257.389 146.417 M162.904 147.313 C 163.013 147.640,209.207 147.727,209.533 147.400 C 209.636 147.297,199.163 147.165,186.260 147.106 C 173.357 147.048,162.847 147.141,162.904 147.313 M80.100 147.500 C 86.205 147.562,96.195 147.562,102.300 147.500 C 108.405 147.438,103.410 147.387,91.200 147.387 C 78.990 147.387,73.995 147.438,80.100 147.500 M248.621 148.783 C 247.881 149.052,247.886 149.077,248.721 149.295 C 249.204 149.422,249.692 149.374,249.806 149.190 C 250.121 148.681,249.494 148.466,248.621 148.783 M156.014 150.374 C 155.491 151.351,155.493 151.600,156.024 151.600 C 156.257 151.600,156.345 151.435,156.220 151.232 C 156.095 151.030,156.277 150.580,156.625 150.232 C 156.973 149.885,157.071 149.600,156.843 149.600 C 156.615 149.600,156.242 149.948,156.014 150.374 M246.200 150.000 C 246.064 150.220,246.098 150.403,246.276 150.406 C 246.454 150.409,246.330 150.587,246.000 150.800 C 245.670 151.013,245.580 151.188,245.800 151.188 C 246.020 151.188,246.470 151.013,246.800 150.800 C 247.236 150.518,247.257 150.411,246.876 150.406 C 246.588 150.403,246.464 150.220,246.600 150.000 C 246.736 149.780,246.757 149.600,246.647 149.600 C 246.537 149.600,246.336 149.780,246.200 150.000 M217.192 151.605 C 216.879 151.798,216.763 152.096,216.933 152.267 C 217.104 152.437,217.392 152.337,217.573 152.043 C 217.847 151.600,217.940 151.602,218.120 152.055 C 218.257 152.399,218.348 152.424,218.368 152.124 C 218.414 151.441,217.855 151.195,217.192 151.605 M322.507 153.955 C 322.542 154.420,322.824 154.800,323.134 154.800 C 323.609 154.800,323.613 154.689,323.162 154.100 C 322.867 153.715,322.585 153.335,322.535 153.255 C 322.484 153.175,322.472 153.490,322.507 153.955 M324.600 153.906 C 324.007 154.342,323.971 155.067,324.542 155.067 C 324.816 155.067,325.065 154.737,325.095 154.333 C 325.157 153.507,325.151 153.501,324.600 153.906 M154.197 251.200 C 154.197 303.670,154.243 325.135,154.300 298.900 C 154.357 272.665,154.357 229.735,154.300 203.500 C 154.243 177.265,154.197 198.730,154.197 251.200 M57.632 156.620 C 57.614 156.851,57.780 157.220,57.999 157.439 C 58.262 157.702,58.433 189.967,58.500 251.819 L 58.602 345.800 58.701 251.276 C 58.761 194.220,58.655 156.842,58.434 156.979 C 58.233 157.103,57.977 156.979,57.866 156.702 C 57.754 156.426,57.649 156.389,57.632 156.620 M326.678 156.656 C 326.199 157.135,326.844 157.600,327.924 157.554 C 328.601 157.524,328.740 157.439,328.300 157.324 C 327.915 157.224,327.600 156.975,327.600 156.771 C 327.600 156.345,327.056 156.278,326.678 156.656 M334.933 164.569 C 334.933 164.897,335.071 165.080,335.239 164.976 C 335.407 164.872,335.658 164.970,335.796 165.193 C 335.934 165.417,336.201 165.600,336.388 165.600 C 336.807 165.600,336.683 164.539,336.214 164.112 C 336.026 163.940,336.001 164.025,336.159 164.300 C 336.507 164.903,335.925 164.965,335.347 164.387 C 335.062 164.102,334.933 164.159,334.933 164.569 M224.100 167.023 C 223.511 167.663,223.462 168.000,223.957 168.000 C 224.298 168.000,224.937 166.796,224.709 166.583 C 224.649 166.527,224.375 166.725,224.100 167.023 M339.122 169.000 C 339.992 170.543,340.302 170.882,340.518 170.532 C 340.638 170.338,340.271 169.734,339.703 169.190 C 338.886 168.406,338.765 168.367,339.122 169.000 M220.118 171.994 C 220.003 172.432,219.722 172.675,219.493 172.534 C 219.251 172.384,219.196 172.470,219.362 172.738 C 219.832 173.499,220.400 173.261,220.406 172.300 C 220.411 171.643,220.505 171.546,220.756 171.943 C 220.968 172.276,221.195 172.331,221.348 172.085 C 221.484 171.864,221.310 171.574,220.961 171.440 C 220.539 171.278,220.256 171.464,220.118 171.994 M351.832 195.148 C 351.560 195.588,352.715 196.618,353.076 196.257 C 353.218 196.116,353.113 196.000,352.843 196.000 C 352.573 196.000,352.456 195.832,352.583 195.628 C 352.709 195.423,352.643 195.150,352.434 195.021 C 352.226 194.892,351.955 194.949,351.832 195.148 M269.673 202.487 C 269.076 203.084,269.055 204.400,269.643 204.400 C 269.892 204.400,269.974 204.108,269.829 203.732 C 269.688 203.365,269.799 202.924,270.075 202.754 C 270.351 202.583,270.480 202.347,270.362 202.228 C 270.243 202.110,269.934 202.226,269.673 202.487 M353.600 204.751 C 353.600 204.998,353.774 205.200,353.987 205.200 C 354.201 205.200,354.271 205.470,354.145 205.800 C 353.786 206.734,354.317 206.505,354.840 205.500 C 355.098 205.005,355.166 204.733,354.991 204.897 C 354.816 205.060,354.432 204.993,354.137 204.748 C 353.742 204.420,353.600 204.421,353.600 204.751 M233.759 207.900 C 233.943 208.219,233.785 208.411,233.324 208.432 C 232.926 208.449,232.815 208.551,233.078 208.657 C 233.340 208.764,233.441 209.155,233.303 209.526 C 233.092 210.088,233.151 210.118,233.662 209.703 C 233.998 209.430,234.431 209.340,234.624 209.503 C 234.816 209.667,234.710 209.457,234.387 209.039 C 234.064 208.620,233.860 208.200,233.933 208.105 C 234.007 208.011,233.933 207.813,233.769 207.667 C 233.606 207.520,233.601 207.625,233.759 207.900 M279.278 209.624 C 278.809 210.374,278.832 210.411,279.529 210.038 C 279.950 209.813,280.448 209.757,280.634 209.914 C 280.821 210.071,280.733 209.885,280.438 209.500 C 279.785 208.647,279.895 208.635,279.278 209.624 M355.496 214.754 C 355.375 215.219,355.426 215.692,355.610 215.806 C 356.148 216.138,356.476 215.266,356.080 214.558 C 355.764 213.992,355.689 214.018,355.496 214.754 M286.971 222.050 C 286.971 222.468,287.147 222.751,287.361 222.680 C 287.989 222.470,288.079 221.716,287.503 221.495 C 287.176 221.369,286.971 221.583,286.971 222.050 M357.228 234.347 C 357.008 234.758,356.942 235.208,357.081 235.347 C 357.591 235.857,357.900 235.575,357.900 234.600 C 357.900 233.405,357.761 233.352,357.228 234.347 M289.483 235.164 C 289.969 235.569,290.239 236.042,290.083 236.214 C 289.927 236.387,290.052 236.382,290.361 236.203 C 290.829 235.931,290.814 235.799,290.267 235.399 C 289.907 235.136,289.730 234.804,289.873 234.660 C 290.016 234.517,289.788 234.406,289.367 234.413 C 288.652 234.426,288.659 234.476,289.483 235.164 M356.971 236.800 C 356.971 237.240,357.113 237.600,357.286 237.600 C 357.459 237.600,357.600 237.240,357.600 236.800 C 357.600 236.360,357.459 236.000,357.286 236.000 C 357.113 236.000,356.971 236.360,356.971 236.800 M290.893 245.200 C 290.893 245.970,290.975 246.285,291.076 245.900 C 291.176 245.515,291.176 244.885,291.076 244.500 C 290.975 244.115,290.893 244.430,290.893 245.200 M289.793 301.000 C 289.793 325.640,289.841 335.661,289.900 323.269 C 289.959 310.877,289.959 290.717,289.900 278.469 C 289.841 266.221,289.793 276.360,289.793 301.000 M57.919 346.227 C 57.799 346.432,57.827 346.948,57.981 347.373 C 58.136 347.799,58.361 347.979,58.481 347.773 C 58.601 347.568,58.573 347.052,58.419 346.627 C 58.264 346.201,58.039 346.021,57.919 346.227 M290.632 347.149 C 290.478 347.397,290.538 347.600,290.764 347.600 C 290.990 347.600,291.064 347.915,290.929 348.300 C 290.737 348.845,290.793 348.898,291.183 348.539 C 291.527 348.221,291.563 347.862,291.297 347.387 C 291.036 346.921,290.820 346.843,290.632 347.149 M292.516 352.000 C 292.631 352.440,292.562 352.800,292.363 352.800 C 291.783 352.800,291.944 353.493,292.580 353.737 C 292.987 353.893,293.086 353.767,292.912 353.314 C 292.728 352.834,292.810 352.757,293.232 353.011 C 293.712 353.301,293.717 353.252,293.266 352.694 C 292.972 352.332,292.847 351.847,292.989 351.618 C 293.131 351.388,293.036 351.200,292.777 351.200 C 292.504 351.200,292.394 351.535,292.516 352.000 M60.822 352.624 C 61.802 353.667,62.165 353.694,61.782 352.697 C 61.651 352.357,61.177 351.983,60.727 351.865 C 59.946 351.661,59.951 351.696,60.822 352.624 M160.025 354.600 C 160.026 355.470,161.041 356.345,161.623 355.977 C 162.103 355.674,162.085 355.611,161.520 355.606 C 161.146 355.603,160.656 355.285,160.432 354.900 C 160.208 354.515,160.025 354.380,160.025 354.600 M296.588 356.020 C 296.207 356.635,296.728 357.032,297.242 356.518 C 297.529 356.231,297.536 356.007,297.262 355.839 C 297.039 355.700,296.735 355.782,296.588 356.020 M0.000 363.387 C 0.000 363.745,0.235 363.885,0.600 363.745 C 1.376 363.447,1.376 362.800,0.600 362.800 C 0.270 362.800,0.000 363.064,0.000 363.387 M398.800 363.157 C 398.800 363.354,399.070 363.618,399.400 363.745 C 399.765 363.885,400.000 363.745,400.000 363.387 C 400.000 363.064,399.730 362.800,399.400 362.800 C 399.070 362.800,398.800 362.961,398.800 363.157 M0.086 369.668 C 0.066 370.365,0.308 371.305,0.625 371.757 C 0.941 372.208,1.200 372.369,1.200 372.113 C 1.200 371.857,1.008 371.528,0.773 371.383 C 0.538 371.238,0.428 370.507,0.529 369.760 C 0.630 369.012,0.579 368.400,0.417 368.400 C 0.255 368.400,0.106 368.971,0.086 369.668 M399.357 370.188 C 399.502 371.175,400.000 371.390,400.000 370.467 C 400.000 369.990,399.836 369.600,399.635 369.600 C 399.435 369.600,399.310 369.865,399.357 370.188 M391.879 386.557 C 391.715 386.974,391.675 387.409,391.791 387.524 C 392.155 387.889,392.476 387.291,392.324 386.531 C 392.183 385.835,392.162 385.836,391.879 386.557 M386.400 392.000 C 385.915 392.314,385.972 392.389,386.700 392.394 C 387.195 392.397,387.600 392.220,387.600 392.000 C 387.600 391.499,387.176 391.499,386.400 392.000 M26.818 398.766 C 26.509 399.344,26.503 399.600,26.798 399.600 C 27.283 399.600,27.812 398.478,27.482 398.148 C 27.362 398.029,27.064 398.307,26.818 398.766 M36.267 399.067 C 35.806 399.527,35.975 400.000,36.600 400.000 C 36.930 400.000,37.200 399.730,37.200 399.400 C 37.200 398.775,36.727 398.606,36.267 399.067 M362.800 399.400 C 362.800 399.730,363.064 400.000,363.387 400.000 C 363.745 400.000,363.885 399.765,363.745 399.400 C 363.618 399.070,363.354 398.800,363.157 398.800 C 362.961 398.800,362.800 399.070,362.800 399.400 M369.600 399.635 C 369.600 399.836,369.990 400.000,370.467 400.000 C 370.943 400.000,371.208 399.875,371.055 399.722 C 370.623 399.289,369.600 399.229,369.600 399.635 " stroke="none" fill="#047cba" fill-rule="evenodd">
    </path>
    <path id="path2" d="M62.430 55.364 C 62.127 55.728,62.103 56.016,62.361 56.176 C 62.580 56.311,62.955 56.057,63.194 55.611 C 63.688 54.689,63.138 54.511,62.430 55.364 M52.000 70.200 C 52.000 70.530,52.180 70.800,52.400 70.800 C 52.620 70.800,52.800 70.530,52.800 70.200 C 52.800 69.870,52.620 69.600,52.400 69.600 C 52.180 69.600,52.000 69.870,52.000 70.200 M130.375 73.154 C 130.922 74.175,131.164 74.238,131.030 73.322 C 130.975 72.949,130.703 72.568,130.426 72.475 C 130.034 72.345,130.023 72.495,130.375 73.154 M50.437 73.977 C 49.833 74.351,50.187 75.217,50.924 75.168 C 51.224 75.148,51.199 75.057,50.855 74.920 C 50.402 74.740,50.400 74.647,50.843 74.373 C 51.137 74.192,51.287 73.953,51.177 73.843 C 51.067 73.733,50.734 73.794,50.437 73.977 M132.400 87.000 C 132.400 87.550,132.555 88.000,132.745 88.000 C 132.934 88.000,133.003 87.550,132.898 87.000 C 132.793 86.450,132.638 86.000,132.553 86.000 C 132.469 86.000,132.400 86.450,132.400 87.000 M277.374 144.442 C 277.191 144.738,279.456 144.678,279.754 144.379 C 279.871 144.262,279.417 144.174,278.745 144.183 C 278.074 144.192,277.457 144.309,277.374 144.442 M58.197 251.400 C 58.197 302.880,58.243 323.881,58.300 298.068 C 58.357 272.255,58.357 230.135,58.300 204.468 C 58.243 178.801,58.197 199.920,58.197 251.400 M331.502 161.066 C 331.779 161.177,331.886 161.461,331.741 161.696 C 331.576 161.962,331.668 162.005,331.983 161.811 C 332.278 161.628,332.635 161.728,332.839 162.049 C 333.078 162.426,333.190 162.447,333.194 162.114 C 333.200 161.631,331.949 160.771,331.326 160.832 C 331.147 160.849,331.226 160.954,331.502 161.066 M234.146 207.398 C 234.019 207.726,233.710 207.878,233.458 207.734 C 233.206 207.590,233.140 207.626,233.312 207.814 C 233.844 208.400,234.880 208.385,234.653 207.795 C 234.539 207.496,234.660 207.164,234.922 207.057 C 235.269 206.916,235.260 206.855,234.887 206.832 C 234.606 206.814,234.272 207.069,234.146 207.398 M232.102 209.029 C 231.419 209.760,232.121 210.092,232.997 209.452 C 233.568 209.034,233.599 208.885,233.154 208.714 C 232.847 208.597,232.374 208.738,232.102 209.029 M356.110 222.400 C 356.143 222.840,356.301 223.200,356.460 223.200 C 356.620 223.200,356.723 222.840,356.690 222.400 C 356.657 221.960,356.499 221.600,356.340 221.600 C 356.180 221.600,356.077 221.960,356.110 222.400 M289.200 230.161 C 289.200 230.840,289.853 231.364,290.130 230.907 C 290.232 230.738,290.065 230.368,289.758 230.084 C 289.300 229.661,289.200 229.674,289.200 230.161 M220.006 233.900 C 220.003 234.395,220.180 234.800,220.400 234.800 C 220.901 234.800,220.901 234.376,220.400 233.600 C 220.086 233.115,220.011 233.172,220.006 233.900 M290.244 235.200 C 290.699 235.874,290.718 236.395,290.311 237.033 C 290.160 237.272,290.268 237.467,290.552 237.467 C 291.235 237.467,291.128 235.751,290.404 235.105 C 289.936 234.687,289.908 234.703,290.244 235.200 M218.602 243.997 C 218.467 244.215,218.541 244.710,218.766 245.097 C 219.117 245.700,219.177 245.644,219.188 244.700 C 219.201 243.550,219.016 243.328,218.602 243.997 M357.793 300.400 C 357.793 325.590,357.841 335.895,357.900 323.300 C 357.959 310.705,357.959 290.095,357.900 277.500 C 357.841 264.905,357.793 275.210,357.793 300.400 M154.358 348.766 C 154.705 348.985,154.810 349.400,154.635 349.860 C 154.417 350.431,154.461 350.492,154.829 350.127 C 155.395 349.566,155.044 348.397,154.313 348.406 C 153.929 348.411,153.941 348.501,154.358 348.766 M398.202 375.197 C 398.067 375.415,398.124 375.893,398.328 376.258 C 398.631 376.798,398.700 376.724,398.700 375.861 C 398.700 374.721,398.588 374.572,398.202 375.197 " stroke="none" fill="#0474bc" fill-rule="evenodd"></path><path id="path3" d="" stroke="none" fill="#0874b4" fill-rule="evenodd">
    </path>
    <path id="path4" d="" stroke="none" fill="#0874b4" fill-rule="evenodd"></path>
  </g>
</svg>